<?xml version="1.0" standalone="no"?>
<!DOCTYPE svg PUBLIC "-//W3C//DTD SVG 20010904//EN"
 "http://www.w3.org/TR/2001/REC-SVG-20010904/DTD/svg10.dtd">
<svg version="1.0" xmlns="http://www.w3.org/2000/svg"
 width="911.000000pt" height="1184.000000pt" viewBox="0 0 911.000000 1184.000000"
 preserveAspectRatio="xMidYMid meet">
<metadata>
Created by potrace 1.16, written by Peter Selinger 2001-2019
</metadata>
<g transform="translate(0.000000,1184.000000) scale(0.100000,-0.100000)"
fill="#1e2d4a" stroke="none">
<g>
<path d="M4430 8330 c-214 -17 -427 -75 -629 -171 -134 -64 -152 -67 -258 -44
-122 26 -232 71 -300 123 l-33 24 0 -28 c1 -105 70 -260 154 -343 l54 -53 -35
-56 c-50 -77 -80 -147 -103 -237 -18 -69 -21 -124 -26 -503 l-6 -426 -118
-115 c-194 -192 -357 -435 -526 -786 -161 -334 -345 -841 -463 -1273 l-20 -73
61 7 c51 6 60 5 53 -7 -20 -34 -107 -144 -218 -277 -92 -110 -117 -146 -106
-152 33 -21 179 -52 244 -53 87 -1 159 16 254 59 66 30 85 34 181 38 178 7
358 65 530 173 46 29 91 51 99 48 8 -3 63 -18 123 -33 87 -22 108 -31 108 -45
0 -10 -51 -68 -113 -130 -63 -62 -133 -141 -155 -177 -23 -36 -42 -58 -42 -50
1 41 35 152 70 227 21 45 36 83 33 83 -2 0 -38 -23 -79 -51 -99 -68 -197 -174
-279 -300 -103 -159 -109 -168 -112 -166 -1 1 5 40 13 87 16 93 33 154 58 214
9 22 14 41 11 44 -10 10 -77 -62 -122 -130 -24 -37 -64 -120 -89 -185 -51
-133 -64 -153 -64 -103 0 45 -27 97 -66 127 l-31 23 5 -74 c5 -79 -6 -129 -40
-171 -12 -16 -95 -63 -216 -121 l-195 -96 -137 -136 c-138 -138 -198 -208
-187 -218 9 -9 288 54 381 85 86 30 238 97 367 162 43 21 89 39 101 39 45 0
143 -81 154 -127 9 -35 22 -28 34 17 12 45 8 68 -21 118 -10 17 -16 32 -13 32
2 0 35 -15 72 -34 81 -41 176 -111 227 -167 20 -22 39 -38 42 -36 10 10 -29
123 -59 169 -16 26 -45 61 -64 78 -19 16 -33 30 -32 30 9 0 107 -33 203 -68
341 -123 625 -159 913 -116 132 19 147 26 90 43 -64 20 -184 82 -263 139 -65
45 -223 188 -200 180 6 -2 80 -38 165 -80 85 -42 186 -88 223 -102 245 -96
505 -87 852 29 196 65 375 134 375 144 0 4 -24 12 -54 18 -80 17 -178 58 -296
125 -110 62 -205 126 -197 134 2 3 42 -9 88 -26 46 -17 154 -52 239 -77 152
-45 158 -46 326 -51 167 -4 171 -4 240 23 85 34 264 124 264 134 0 3 -39 12
-87 19 -49 6 -122 23 -163 36 -84 28 -194 76 -187 82 2 3 33 -2 68 -11 249
-59 508 -27 710 88 87 49 246 159 302 208 l39 34 -99 -4 c-95 -3 -257 13 -298
30 -12 5 21 8 86 8 166 1 337 41 462 108 60 32 265 228 404 386 52 59 98 107
103 107 4 0 13 -13 20 -30 13 -32 39 -45 70 -35 45 14 43 36 -21 204 -66 173
-78 187 -126 156 -23 -15 -25 -21 -19 -62 l6 -44 -83 6 c-383 27 -642 24 -770
-10 -112 -29 -241 -110 -364 -228 -35 -33 -63 -56 -63 -51 0 16 96 159 136
203 l38 43 -40 -7 c-162 -27 -346 -95 -465 -171 -25 -16 -28 -16 -60 9 -31 23
-88 42 -148 49 -22 3 -15 10 50 59 350 263 622 690 685 1077 38 233 -14 459
-139 598 l-45 50 -5 465 c-4 439 -5 468 -26 542 -27 96 -60 172 -100 231 -17
25 -31 47 -31 51 0 3 25 31 55 61 71 72 121 174 137 276 6 43 9 81 5 84 -3 4
-22 -7 -41 -23 -68 -60 -220 -115 -359 -129 -61 -6 -65 -5 -172 49 -163 82
-338 136 -524 161 -142 20 -266 25 -381 16z m449 -159 c92 -20 268 -74 306
-94 16 -8 5 -13 -65 -27 -212 -43 -395 -159 -511 -323 l-48 -68 -39 58 c-53
78 -165 182 -249 231 -81 48 -223 100 -299 108 -31 4 -51 11 -46 16 15 15 208
76 308 97 143 30 141 30 354 26 149 -3 217 -8 289 -24z m805 -169 c-72 -67
-173 -112 -374 -166 -229 -61 -321 -106 -416 -200 -101 -101 -143 -199 -144
-332 0 -59 30 -184 37 -153 3 11 22 -2 67 -46 85 -84 148 -109 271 -109 70 0
103 5 148 23 81 32 168 114 209 199 31 63 33 73 33 177 0 98 -3 116 -26 166
-15 31 -44 75 -64 98 -21 23 -36 43 -34 44 2 2 48 18 102 36 115 37 101 44
166 -79 52 -100 71 -177 71 -295 0 -120 -11 -166 -67 -284 -39 -81 -58 -108
-137 -186 -129 -130 -206 -179 -455 -292 -305 -138 -440 -251 -548 -458 l-36
-70 74 71 c41 39 99 89 129 111 76 56 229 142 325 182 333 139 459 215 597
359 48 50 97 106 108 124 l20 33 0 -213 c0 -695 -118 -1206 -374 -1619 -129
-209 -254 -352 -351 -400 -27 -14 -58 -32 -67 -41 -13 -11 -37 -14 -91 -13
-83 2 -128 -13 -182 -61 -36 -31 -85 -113 -85 -142 0 -24 -34 -56 -75 -70 -39
-14 -40 -14 -79 21 -60 55 -117 76 -192 71 -51 -3 -72 -10 -108 -35 -43 -30
-44 -31 -96 -17 -73 19 -136 4 -192 -46 -43 -38 -45 -38 -91 -28 -75 16 -146
-4 -206 -58 -27 -24 -54 -44 -61 -44 -13 0 -152 41 -159 46 -2 2 41 50 95 107
166 174 297 377 398 620 39 93 56 120 120 190 166 181 248 305 316 476 57 142
73 223 73 371 0 104 -4 139 -25 206 -70 231 -218 375 -485 472 -45 17 -107 47
-137 67 -126 83 -240 248 -281 405 -22 82 -16 260 10 335 26 74 64 150 94 184
l26 31 95 -32 c52 -18 96 -33 98 -34 2 -1 -17 -27 -42 -58 -161 -198 -88 -507
148 -617 150 -70 324 -40 443 77 29 29 53 48 53 41 0 -7 3 -8 10 -1 21 21 38
141 30 206 -16 125 -59 206 -154 296 -90 84 -191 131 -401 187 -192 52 -309
103 -375 165 -26 24 -36 39 -25 35 133 -47 201 -60 375 -75 69 -6 163 -19 210
-30 105 -25 265 -103 343 -167 63 -53 154 -168 194 -247 l26 -50 21 44 c59
122 150 226 263 300 143 95 256 128 520 154 160 16 242 33 315 65 24 11 45 20
48 20 3 0 -18 -21 -46 -47z m-1732 -374 c37 -12 68 -26 68 -31 0 -4 -4 -6 -8
-3 -17 10 -83 -16 -118 -46 -49 -43 -64 -78 -64 -145 0 -200 263 -265 358 -88
9 17 19 55 22 85 l5 55 33 -62 c17 -34 32 -74 32 -88 0 -60 -66 -142 -150
-186 -37 -20 -60 -24 -130 -24 -75 0 -91 4 -139 30 -67 37 -115 92 -142 164
-43 114 -7 260 80 332 43 35 64 36 153 7z m1388 -24 c60 -66 83 -124 83 -210
-1 -84 -23 -142 -79 -204 -126 -139 -353 -128 -464 23 -46 63 -48 95 -9 174
l32 68 9 -54 c13 -82 48 -134 110 -165 63 -32 108 -33 166 -5 83 41 125 132
102 220 -16 58 -81 123 -139 139 -24 6 -41 13 -39 16 13 12 118 43 149 43 31
1 43 -6 79 -45z m-275 -79 c29 -28 31 -42 9 -73 -17 -25 -71 -31 -92 -10 -13
13 -16 57 -4 74 8 12 43 33 55 34 4 0 19 -11 32 -25z m-1091 -1 c19 -18 21
-65 4 -82 -21 -21 -75 -15 -92 10 -20 29 -20 47 1 70 20 22 66 24 87 2z m-528
-658 c23 -28 58 -66 79 -85 l38 -34 -51 -13 c-28 -7 -68 -20 -88 -29 -20 -8
-38 -15 -40 -15 -2 0 -4 60 -3 133 0 106 3 128 12 113 7 -10 31 -42 53 -70z
m357 -262 c181 -47 317 -175 375 -353 19 -60 24 -98 25 -176 0 -172 -36 -298
-134 -469 -154 -269 -463 -547 -822 -739 -145 -78 -472 -215 -484 -203 -3 2
16 16 40 31 148 86 467 359 608 521 108 123 250 332 316 465 55 110 127 288
120 296 -3 2 -23 -30 -46 -71 -209 -381 -593 -781 -1031 -1073 -173 -116 -427
-263 -454 -263 -5 0 59 207 81 261 9 24 27 43 56 59 96 54 284 186 380 269
228 195 390 400 498 626 51 108 49 124 -5 47 -121 -172 -348 -411 -523 -550
-83 -66 -311 -222 -325 -222 -9 0 -8 2 84 235 40 99 123 281 184 405 237 474
454 743 703 870 95 48 244 63 354 34z m2108 -362 c75 -243 -2 -556 -219 -882
-38 -58 -86 -123 -105 -145 l-36 -40 48 100 c81 169 160 408 196 597 22 118
55 373 55 432 l1 51 19 -23 c11 -13 29 -54 41 -90z m-2307 -1349 c-49 -112
-161 -275 -272 -395 -87 -94 -255 -223 -361 -277 -89 -45 -222 -91 -266 -91
-12 0 20 39 96 118 63 65 148 164 189 221 41 57 89 122 105 144 25 34 57 56
175 117 80 41 192 107 250 147 58 39 106 72 107 72 2 1 -9 -25 -23 -56z m3583
-74 c9 -23 9 -31 0 -34 -307 -110 -708 -243 -1122 -370 -154 -47 -300 -93
-325 -101 -43 -13 -46 -17 -58 -66 -39 -165 -172 -291 -311 -293 -43 -1 -66
-7 -96 -27 -51 -34 -119 -52 -166 -44 -31 5 -47 0 -86 -24 -65 -40 -111 -47
-168 -26 -62 24 -95 66 -95 121 0 24 -3 46 -7 48 -5 3 -32 -3 -62 -13 -40 -12
-57 -24 -64 -41 -80 -201 -176 -291 -312 -294 -52 -1 -66 -6 -110 -37 -63 -46
-118 -62 -183 -53 -45 6 -52 4 -83 -23 -50 -43 -72 -52 -129 -52 -57 0 -120
27 -144 62 -9 12 -16 42 -16 66 0 38 -2 43 -17 37 -10 -3 -81 -31 -158 -60
-400 -152 -701 -278 -975 -405 -371 -174 -491 -222 -508 -205 -4 4 21 34 56
66 51 48 93 74 220 136 343 165 577 268 972 423 374 148 440 172 457 166 27
-11 46 -77 40 -144 -4 -59 -4 -62 20 -68 93 -24 191 58 233 193 l18 58 7 -38
c4 -22 5 -61 2 -88 l-6 -49 40 0 c51 0 107 29 149 76 33 39 80 127 80 154 0
13 1 13 10 0 6 -8 9 -42 8 -74 -1 -37 3 -61 9 -63 27 -9 98 21 140 60 62 57
113 164 113 239 0 29 -3 28 155 73 85 24 90 25 102 8 21 -28 33 -83 33 -150 0
-72 14 -83 78 -62 56 18 97 53 137 119 20 33 39 60 42 60 3 0 3 -27 0 -60 l-5
-60 34 0 c74 0 154 66 201 164 l24 51 -2 -67 c-1 -38 0 -70 2 -72 2 -3 25 0
51 5 97 21 186 137 207 269 6 34 12 64 13 65 3 3 334 103 518 156 214 62 591
180 795 247 116 39 215 70 220 71 6 1 16 -13 22 -30z m-1777 -206 c57 -47 90
-115 105 -210 l7 -43 -31 11 c-22 8 -40 8 -62 0 -34 -12 -49 -7 -49 15 0 30
-43 140 -72 186 -16 26 -27 52 -23 58 3 5 26 10 50 10 33 0 51 -7 75 -27z
m-241 -38 c52 -47 102 -151 108 -226 l6 -59 -32 11 c-30 11 -47 10 -98 -6 -20
-7 -23 -4 -23 23 0 45 -34 130 -81 202 -38 58 -39 63 -22 76 10 7 37 14 60 14
35 0 50 -6 82 -35z m-2316 -77 c-75 -99 -240 -265 -328 -330 -131 -98 -259
-153 -346 -146 l-41 3 109 141 c59 77 128 168 152 201 40 56 48 61 100 73 63
14 285 81 346 103 22 9 44 16 48 16 5 1 -13 -27 -40 -61z m2021 52 c63 -24
141 -150 153 -249 l6 -51 -40 0 c-50 0 -105 -19 -100 -34 2 -6 22 -10 48 -8
26 2 52 -3 62 -10 17 -13 17 -16 2 -63 -10 -27 -24 -60 -33 -73 -16 -24 -16
-24 -29 27 -7 28 -24 69 -38 90 -13 22 -37 70 -51 106 -29 72 -54 95 -112 104
-31 5 -37 11 -40 34 -5 38 40 104 81 122 38 17 58 18 91 5z m-513 -216 c48
-47 89 -133 96 -200 l6 -55 -41 7 c-28 4 -50 1 -73 -10 -18 -9 -33 -15 -34
-14 -2 2 -10 30 -20 63 -18 62 -54 141 -87 188 -25 35 -18 54 24 65 46 12 85
-1 129 -44z m-327 -8 c75 -31 156 -173 164 -289 5 -68 4 -69 -16 -58 -28 15
-72 13 -102 -4 -39 -23 -45 -19 -56 43 -14 74 -50 155 -92 210 -37 49 -36 69
5 94 34 21 54 22 97 4z m1468 -18 c7 -12 -2 -40 -29 -91 l-17 -32 -7 40 c-4
22 -12 52 -18 67 -7 20 -7 28 2 32 17 7 60 -3 69 -16z m-1731 -68 c73 -38 135
-154 146 -276 l6 -63 -35 10 c-38 10 -79 0 -109 -27 -20 -18 -20 -18 -48 68
-27 81 -64 124 -114 133 -32 6 -37 11 -37 34 0 40 41 102 80 122 44 24 61 24
111 -1z m1487 -17 c4 -27 -44 -124 -51 -103 -43 127 -42 133 18 128 22 -2 31
-9 33 -25z m-808 -212 c0 -24 -35 -107 -48 -115 -6 -3 -14 8 -17 26 -4 18 -14
46 -22 62 -18 35 -7 46 50 46 30 0 37 -4 37 -19z m-271 -80 c12 -7 11 -17 -5
-60 -20 -57 -51 -94 -57 -70 -3 8 -11 37 -20 66 l-15 52 27 10 c34 12 53 13
70 2z m-286 -77 c12 -4 13 -12 5 -42 -26 -95 -58 -143 -58 -88 0 13 -9 45 -20
71 l-20 46 23 9 c26 11 50 12 70 4z"/>
<g>
<path d="M4538 7223 c-9 -16 -46 -66 -82 -112 -36 -46 -66 -86 -66 -88 0 -2
26 -56 58 -121 33 -64 69 -143 82 -174 26 -63 35 -70 46 -35 4 12 40 91 81
175 66 135 73 155 61 171 -110 153 -154 210 -158 211 -3 0 -13 -12 -22 -27z
m48 -228 c-9 -34 -15 -43 -19 -31 -9 22 -9 94 0 125 6 24 7 24 19 -10 9 -28 9
-46 0 -84z"/>
</g>
</g>
<g>
<path d="M7547 5263 c-24 -32 -65 -77 -90 -100 -49 -45 -160 -129 -179 -135
-8 -3 3 -45 37 -133 28 -70 54 -134 60 -141 8 -11 21 -10 70 1 73 18 206 23
297 12 l66 -8 38 58 c51 76 227 252 334 332 47 35 87 67 88 72 5 12 -11 11
-40 -1 -20 -8 -286 -110 -425 -162 -39 -14 -53 -25 -53 -39 0 -29 -36 -59 -70
-59 -67 0 -96 88 -44 129 32 25 37 25 80 5 l34 -16 250 93 c138 52 248 98 247
104 -2 5 -15 8 -28 6 -13 -2 -114 -4 -224 -4 -153 -1 -221 3 -288 16 -48 10
-93 20 -101 23 -9 3 -31 -17 -59 -53z"/>
</g>
</g>
</svg>
